name analog
datacolumns 19
datarows 33
range 0.0 0.016
endheader
time	ground_force_vx	ground_force_vy	ground_force_vz	ground_force_px	ground_force_py	ground_force_pz	l_ground_force_vx	l_ground_force_vy	l_ground_force_vz	l_ground_force_px	l_ground_force_py	l_ground_force_pz	ground_torque_x	ground_torque_y	ground_torque_z	l_ground_torque_x	l_ground_torque_y	l_ground_torque_z
0.0	-0.0	-0.0	-0.0	-5.196613788604736	27.841651916503903	-462.31256103515625	6.939213275909424	-27.7673282623291	-532.3204956054688	-0.0	-0.0	-0.0	-0.0	-0.0	-0.0	180765.40625	-34872.3984375	597.774658203125
0.0005	-0.0	-0.0	-0.0	-4.772332668304443	28.031082153320312	-462.53369140625	6.401704788208008	-27.884521484375	-530.7886962890625	-0.0	-0.0	-0.0	-0.0	-0.0	-0.0	180440.59375	-34602.0859375	595.6090698242188
0.001	-0.0	-0.0	-0.0	-4.684248924255371	27.965707778930664	-465.49114990234375	6.584616184234619	-27.40825462341309	-530.9020385742188	-0.0	-0.0	-0.0	-0.0	-0.0	-0.0	180422.65625	-34695.24609375	597.69580078125
0.0015	-0.0	-0.0	-0.0	-5.340243339538574	28.142431259155277	-465.2204284667969	6.2581400871276855	-27.516218185424805	-530.4962158203125	-0.0	-0.0	-0.0	-0.0	-0.0	-0.0	180313.15625	-34525.6640625	513.2112426757812
0.002	-0.0	-0.0	-0.0	-5.062088966369629	27.862266540527344	-466.0257568359375	6.407451629638672	-27.13494300842285	-529.17919921875	-0.0	-0.0	-0.0	-0.0	-0.0	-0.0	179762.828125	-34705.484375	460.8472595214844
0.0025	-0.0	-0.0	-0.0	-5.263420104980469	28.15519523620605	-467.7808837890625	5.998188018798828	-26.945114135742188	-527.917236328125	-0.0	-0.0	-0.0	-0.0	-0.0	-0.0	179634.40625	-34553.91796875	380.8155517578125
0.003	-0.0	-0.0	-0.0	-5.306291580200195	27.90127944946289	-467.8854370117188	5.786734104156494	-27.386669158935547	-526.386474609375	-0.0	-0.0	-0.0	-0.0	-0.0	-0.0	179393.5625	-34516.7109375	501.4479675292969
0.0035	-0.0	-0.0	-0.0	-5.0986528396606445	28.3009033203125	-468.5775146484375	5.8889336585998535	-26.83649635314941	-526.6307373046875	-0.0	-0.0	-0.0	-0.0	-0.0	-0.0	179038.59375	-34645.5625	389.91497802734375
0.004	-0.0	-0.0	-0.0	-5.084999084472656	28.254337310791016	-469.8968505859375	5.601917743682861	-26.97191429138184	-524.0765380859375	-0.0	-0.0	-0.0	-0.0	-0.0	-0.0	178561.09375	-34684.53515625	378.37249755859375
0.0045000000000000005	-0.0	-0.0	-0.0	-4.906578063964844	28.35775756835937	-468.0733947753906	5.432282447814941	-26.592748641967773	-522.3818969726562	-0.0	-0.0	-0.0	-0.0	-0.0	-0.0	178016.546875	-34295.75390625	309.41943359375
0.005	-0.0	-0.0	-0.0	-4.891941547393799	28.141530990600582	-469.2243957519531	5.246705532073975	-26.660436630249023	-522.1148071289062	-0.0	-0.0	-0.0	-0.0	-0.0	-0.0	177655.359375	-34234.1015625	282.2887878417969
0.0055	-0.0	-0.0	-0.0	-5.076157569885254	28.563217163085938	-470.9776611328125	5.145225524902344	-26.429292678833008	-520.6685180664062	-0.0	-0.0	-0.0	-0.0	-0.0	-0.0	177487.59375	-34420.171875	337.43035888671875
0.006	-0.0	-0.0	-0.0	-4.647618770599365	28.5716552734375	-471.2973937988281	5.377659797668457	-26.1767692565918	-519.8028564453125	-0.0	-0.0	-0.0	-0.0	-0.0	-0.0	176960.640625	-34088.83984375	331.76177978515625
0.006500000000000001	-0.0	-0.0	-0.0	-4.75225830078125	27.92189598083496	-472.4593505859375	5.12376594543457	-25.945209503173828	-519.48974609375	-0.0	-0.0	-0.0	-0.0	-0.0	-0.0	176460.5	-34329.50390625	316.1824645996094
0.007	-0.0	-0.0	-0.0	-4.687375545501709	28.38357734680176	-472.0426330566406	5.200366973876953	-26.06684112548828	-517.2633666992188	-0.0	-0.0	-0.0	-0.0	-0.0	-0.0	176315.78125	-34113.3515625	360.25958251953125
0.0075	-0.0	-0.0	-0.0	-4.5984320640563965	28.108577728271484	-472.9719543457031	5.157022953033447	-25.85664367675781	-516.961669921875	-0.0	-0.0	-0.0	-0.0	-0.0	-0.0	175868.515625	-34225.71484375	401.193603515625
0.008	-0.0	-0.0	-0.0	-4.500748157501221	27.83315658569336	-473.7424011230469	5.034664630889893	-26.02161407470703	-516.61279296875	-0.0	-0.0	-0.0	-0.0	-0.0	-0.0	175547.1875	-34202.859375	364.1184387207031
0.0085	-0.0	-0.0	-0.0	-4.760458469390869	28.222064971923828	-475.6359558105469	5.255899429321289	-25.77857208251953	-515.4376220703125	-0.0	-0.0	-0.0	-0.0	-0.0	-0.0	175532.828125	-34357.95703125	471.81488037109375
0.009000000000000001	-0.0	-0.0	-0.0	-4.549736022949219	28.2468204498291	-474.8398132324219	4.967803955078125	-25.23802375793457	-514.47412109375	-0.0	-0.0	-0.0	-0.0	-0.0	-0.0	175287.6875	-34207.09765625	423.5602111816406
0.0095	-0.0	-0.0	-0.0	-4.549736022949219	27.67716407775879	-475.8318176269531	5.233936309814453	-25.403547286987305	-514.56201171875	-0.0	-0.0	-0.0	-0.0	-0.0	-0.0	175321.5625	-34497.796875	497.8722229003906
0.01	-0.0	-0.0	-0.0	-4.264207363128662	27.979848861694336	-477.4284362792969	5.145225524902344	-25.150127410888672	-513.60205078125	-0.0	-0.0	-0.0	-0.0	-0.0	-0.0	175298.4375	-34481.27734375	475.7516174316406
0.0105	-0.0	-0.0	-0.0	-4.478786945343018	27.884057998657227	-479.4915466308594	5.112119674682617	-24.851354598999023	-513.7741088867188	-0.0	-0.0	-0.0	-0.0	-0.0	-0.0	174968.578125	-34474.5625	590.604248046875
0.011	-0.0	-0.0	-0.0	-4.206324577331543	27.84063148498535	-479.2917785644531	5.31047248840332	-24.47722816467285	-513.3829956054688	-0.0	-0.0	-0.0	-0.0	-0.0	-0.0	175038.21875	-34843.15234375	605.962890625
0.0115	-0.0	-0.0	-0.0	-4.04638147354126	27.87895393371582	-481.5105895996094	5.720711708068848	-24.465106964111328	-512.7649536132812	-0.0	-0.0	-0.0	-0.0	-0.0	-0.0	174897.421875	-34900.5078125	586.9532470703125
0.012	-0.0	-0.0	-0.0	-4.059254169464111	27.789461135864254	-480.880126953125	5.112314701080322	-24.17735290527344	-513.4330444335938	-0.0	-0.0	-0.0	-0.0	-0.0	-0.0	174708.515625	-34940.6015625	539.1016235351562
0.0125	-0.0	-0.0	-0.0	-3.7407150268554688	27.9295654296875	-481.4085083007813	5.644636154174805	-24.288463592529297	-512.9425048828125	-0.0	-0.0	-0.0	-0.0	-0.0	-0.0	174922.203125	-34965.08984375	683.4124145507812
0.013000000000000001	-0.0	-0.0	-0.0	-3.6834170818328857	27.60466194152832	-482.8204345703125	5.7989888191223145	-23.814210891723636	-512.2964477539062	-0.0	-0.0	-0.0	-0.0	-0.0	-0.0	174719.3125	-35098.78125	739.6763916015625
0.0135	-0.0	-0.0	-0.0	-3.484917402267456	27.656333923339844	-481.9879455566406	5.897062301635742	-23.99092674255371	-512.11376953125	-0.0	-0.0	-0.0	-0.0	-0.0	-0.0	174763.4375	-35414.65234375	788.0897216796875
0.014	-0.0	-0.0	-0.0	-3.536837577819824	27.504207611083984	-482.5688171386719	5.686756610870361	-23.605180740356445	-512.51806640625	-0.0	-0.0	-0.0	-0.0	-0.0	-0.0	175173.375	-35511.8828125	802.0763549804688
0.0145	-0.0	-0.0	-0.0	-1.5795984268188477	26.969715118408203	-483.3786010742188	6.265879154205322	-23.53502082824707	-513.21728515625	-0.0	-0.0	-0.0	-0.0	-0.0	-0.0	175284.765625	-35779.8984375	922.9086303710938
0.015	-0.0	-0.0	-0.0	-2.755228042602539	27.33160781860352	-483.8361511230469	6.153574466705322	-23.628984451293945	-512.5545654296875	-0.0	-0.0	-0.0	-0.0	-0.0	-0.0	175404.03125	-35887.1875	1095.9442138671875
0.0155	-0.0	-0.0	-0.0	-2.9968221187591557	27.300317764282227	-484.1050109863281	6.517031669616699	-23.237245559692383	-512.9973754882812	-0.0	-0.0	-0.0	-0.0	-0.0	-0.0	175406.90625	-36242.9921875	1193.2471923828125
0.016	-0.0	-0.0	-0.0	-2.50262451171875	26.97050094604492	-484.4014587402344	6.806802272796631	-23.180957794189453	-513.2861328125	-0.0	-0.0	-0.0	-0.0	-0.0	-0.0	175434.40625	-36459.39453125	1304.1708984375
